<svg width="75" height="75" viewBox="0 0 75 75" fill="none" xmlns="http://www.w3.org/2000/svg">
<path d="M63 37.5C63 51.574 51.574 63 37.5 63C23.426 63 12 51.574 12 37.5C12 23.426 23.426 12 37.5 12C51.574 12 63 23.426 63 37.5Z" fill="#181818"/>
<path fill-rule="evenodd" clip-rule="evenodd" d="M37.5 14.4799C24.7955 14.4799 14.4799 24.7955 14.4799 37.5C14.4799 50.2045 24.7955 60.5201 37.5 60.5201C50.2045 60.5201 60.5201 50.2045 60.5201 37.5C60.5201 24.7955 50.2045 14.4799 37.5 14.4799ZM10 37.5C10 22.3214 22.3214 10 37.5 10C52.6786 10 65 22.3214 65 37.5C65 52.6786 52.6786 65 37.5 65C22.3214 65 10 52.6786 10 37.5Z" fill="#00EEFF"/>
<path fill-rule="evenodd" clip-rule="evenodd" d="M19.2554 28L53 37.1074L51.7446 42L18 32.8926L19.2554 28Z" fill="black"/>
<path fill-rule="evenodd" clip-rule="evenodd" d="M51.9029 52.0734C52.3111 51.1988 52.7354 49.8718 53.1293 47.9602L58 48.9532C57.5661 51.0588 57.0464 52.7977 56.4125 54.1559C55.7985 55.4712 54.9459 56.7152 53.6774 57.4272C52.2451 58.2311 50.7366 58.1146 49.4721 57.5355C48.3204 57.008 47.3302 56.0933 46.4969 55.1322C44.8127 53.1898 43.1376 50.3052 41.5404 47.1408C39.9218 43.9342 38.2956 40.2603 36.7417 36.6278C36.0536 35.0194 35.3841 33.4313 34.7371 31.8965C32.9432 27.6413 31.3222 23.796 29.9573 21.0647C29.9503 21.4171 29.9466 21.7933 29.9466 22.1945C29.9466 27.4707 29.6941 31.969 29.1729 35.6638C28.6567 39.3236 27.8554 42.3603 26.6593 44.6065C25.4506 46.8765 23.6423 48.6662 21.0636 49.0299C18.6188 49.3748 16.2063 48.3187 14 46.714L16.9348 42.7221C18.7264 44.0252 19.812 44.2117 20.3655 44.1336C20.7851 44.0744 21.4754 43.7758 22.2655 42.292C23.0683 40.7844 23.7661 38.4017 24.2492 34.9767C24.7274 31.5865 24.9746 27.3344 24.9746 22.1945C24.9746 20.1922 25.0594 18.5732 25.2443 17.3309C25.3368 16.71 25.4635 16.1178 25.6465 15.5889C25.8185 15.0922 26.1054 14.4561 26.6317 13.9284C27.243 13.3154 28.1307 12.9103 29.1546 13.0171C30.0272 13.1081 30.6784 13.5416 31.0678 13.8608C31.841 14.4947 32.5025 15.4519 33.052 16.3623C34.8219 19.2949 37.0748 24.6437 39.4376 30.2535C40.0586 31.7279 40.6872 33.2203 41.3167 34.6916C42.8618 38.3035 44.4382 41.86 45.9837 44.922C47.5506 48.0261 49.0011 50.4482 50.2621 51.9025C50.7675 52.4854 51.1467 52.7989 51.3885 52.9528C51.5082 52.8028 51.6878 52.5341 51.9029 52.0734ZM30.3765 17.1257C30.3766 17.126 30.3744 17.1313 30.3694 17.1409C30.3739 17.1303 30.3764 17.1255 30.3765 17.1257Z" fill="black"/>
<path fill-rule="evenodd" clip-rule="evenodd" d="M50.1245 54.1487C50.6617 54.5778 51.1218 54.7829 51.5073 54.8198C51.8768 54.8552 52.1783 54.8394 52.4429 54.7537C52.6986 54.6709 52.9577 54.5106 53.2241 54.1936C53.7826 53.5289 54.3446 52.2121 54.8645 49.6676L56 49.901C55.4749 52.4708 54.8693 54.0397 54.1103 54.9428C53.7179 55.4098 53.2807 55.704 52.7991 55.86C52.3266 56.013 51.85 56.0204 51.3971 55.9771L51.3969 55.9771C50.7029 55.9105 50.0338 55.5624 49.4024 55.0581C48.7674 54.5509 48.1306 53.8538 47.4961 53.0204C46.227 51.3536 44.9134 49.07 43.5973 46.4688C41.3334 41.9945 39.0229 36.5001 36.8871 31.4214C36.5385 30.5924 36.1945 29.7745 35.8562 28.9739C34.648 26.1149 33.5119 23.4775 32.4867 21.3302C31.4532 19.1652 30.5594 17.5578 29.8435 16.7154C29.6682 16.5091 29.5178 16.366 29.3934 16.275C29.2692 16.184 29.1997 16.1659 29.179 16.163C29.1772 16.1642 29.1749 16.1658 29.1721 16.168C29.1422 16.1907 29.0735 16.2611 28.9891 16.4388C28.8181 16.799 28.6608 17.4312 28.5506 18.4208C28.4418 19.3975 28.3834 20.6755 28.3834 22.2956C28.3834 29.4599 27.9344 34.9213 27.0457 38.8537C26.1645 42.7532 24.8182 45.2994 22.8905 46.4123L22.8903 46.4124C21.1177 47.4348 19.1179 47.1988 17 45.9251L17.5961 44.928C19.4867 46.0651 21.0213 46.1493 22.3122 45.4048C23.7922 44.5503 25.0472 42.4379 25.9153 38.5967C26.776 34.7884 27.2244 29.427 27.2244 22.2956C27.2244 20.6525 27.2833 19.3275 27.3986 18.2917C27.5126 17.2689 27.6862 16.4793 27.9426 15.9391C28.0719 15.6666 28.241 15.4172 28.4717 15.2417C28.718 15.0543 29.009 14.9719 29.3149 15.0085C29.601 15.0427 29.8575 15.1754 30.0769 15.336C30.2991 15.4988 30.5154 15.7138 30.7257 15.9613C31.5521 16.9338 32.5028 18.672 33.5322 20.8281C34.57 23.002 35.7153 25.6615 36.9234 28.5202C37.2635 29.3249 37.6086 30.1455 37.9578 30.9759C40.0952 36.0583 42.3873 41.5084 44.6309 45.9427C45.9365 48.5231 47.2125 50.7324 48.4173 52.3148C49.0197 53.106 49.591 53.7226 50.1245 54.1487ZM29.1839 16.1602C29.1839 16.1603 29.1837 16.1603 29.1834 16.1605C29.1838 16.1603 29.1839 16.1602 29.1839 16.1602Z" fill="#00EEFF"/>
<path fill-rule="evenodd" clip-rule="evenodd" d="M20.2956 30L51 37.8889L50.7044 39L20 31.1111L20.2956 30Z" fill="#00EEFF"/>
</svg>
